# xmcd CD database file
#
# Track frame offsets:
#	182
#	21400
#	37685
#	54862
#	76432
#	90150
#	107415
#	126902
#	144395
#	160032
#	179510
#
# Disc length: 2632 seconds
#
# Revision: 0
# Processed by: cddbd v1.5PL3 Copyright (c) Steve Scherf et al.
# Submitted via: CDex 1.51
#
DISCID=7a0a460b
DTITLE=Louis Armstrong - Louis Armstrong And The Dukes Of Dixieland Vol 2
DYEAR=1900
DGENRE=Jazz
TTITLE0=Limehouse Blues
TTITLE1=South
TTITLE2=Washington And Lee Swing
TTITLE3=Avalon
TTITLE4=New Orleans
TTITLE5=That's A'plenty
TTITLE6=Just A Closer Walk With Thee
TTITLE7=Dixie
TTITLE8=The Sheik Of Araby
TTITLE9=Wolverine Blues
TTITLE10=Sweet Georgia Brown
EXTD=
EXTT0=
EXTT1=
EXTT2=
EXTT3=
EXTT4=
EXTT5=
EXTT6=
EXTT7=
EXTT8=
EXTT9=
EXTT10=
PLAYORDER=
